<?xml version="1.0" encoding="UTF-8" standalone="no"?>
<!DOCTYPE svg PUBLIC "-//W3C//DTD SVG 1.1//EN" "http://www.w3.org/Graphics/SVG/1.1/DTD/svg11.dtd">
<svg width="100%" height="100%" viewBox="0 0 1206 482" version="1.1" xmlns="http://www.w3.org/2000/svg" xmlns:xlink="http://www.w3.org/1999/xlink" xml:space="preserve" xmlns:serif="http://www.serif.com/" style="fill-rule:evenodd;clip-rule:evenodd;stroke-linejoin:round;stroke-miterlimit:2;">
    <g transform="matrix(0.293908,0,0,0.293908,-191.183,-1349.76)">
        <path d="M2352.38,5776.85C2170.6,5663.81 2049.5,5462.29 2049.5,5232.71C2049.5,4879.34 2336.39,4592.45 2689.76,4592.45C3043.13,4592.45 3330.02,4879.34 3330.02,5232.71C3330.02,5464.45 3206.64,5667.59 3022.02,5779.99C3095.01,5811.81 3167.91,5849.85 3240.86,5888.39C3258.76,5897.85 3276.66,5907.35 3294.57,5916.75C3281.74,5875.26 3274.83,5831.16 3274.83,5785.47C3274.83,5540.04 3474.09,5340.78 3719.52,5340.78C3964.95,5340.78 4164.21,5540.04 4164.21,5785.47C4164.21,5872.42 4139.2,5953.58 4095.99,6022.11C4318.77,5993.42 4527.13,5956.48 4527.13,5956.48C4574.69,5948.09 4753.51,6096.02 4753.51,6096.02C4753.51,6096.02 4605.11,6120.43 4557.55,6128.82C4557.55,6128.82 4020.14,6223.31 3735.07,6229.89C3730.1,6230.06 3725.12,6230.15 3720.11,6230.15C3528.52,6232.42 3342.35,6139.94 3159.1,6043.12C3002.2,5960.22 2848.1,5872.97 2689.76,5872.97C2530.69,5872.97 2367.56,5956.94 2205.88,6038.61C2055.14,6114.75 1905.56,6189.46 1763.2,6218.09C1730.48,6225.88 1696.38,6230.05 1661.33,6230.15C1378.2,6238.14 820.202,6128.49 820.202,6128.49C772.828,6119.11 650.486,6096.79 650.486,6096.79C650.486,6096.79 806.794,5947.44 854.168,5956.82C854.168,5956.82 1064.15,5998.66 1287.23,6027.89C1241.76,5958.16 1215.32,5874.88 1215.32,5785.47C1215.32,5540.04 1414.57,5340.78 1660,5340.78C1905.43,5340.78 2104.69,5540.04 2104.69,5785.47C2104.69,5825.59 2099.36,5864.49 2089.38,5901.47C2101.9,5895.11 2114.43,5888.74 2126.98,5882.4C2201.7,5844.66 2277.08,5807.67 2352.38,5776.85ZM3729.49,6054.97C3873.72,6049.73 3989.21,5930.98 3989.21,5785.47C3989.21,5636.62 3868.37,5515.78 3719.52,5515.78C3570.68,5515.78 3449.83,5636.62 3449.83,5785.47C3449.83,5934.13 3570.39,6054.86 3719,6055.15C3722.45,6055.11 3725.94,6055.05 3729.49,6054.97ZM1712.09,6050.12C1836.05,6025.82 1929.69,5916.49 1929.69,5785.47C1929.69,5636.62 1808.85,5515.78 1660,5515.78C1511.16,5515.78 1390.32,5636.62 1390.32,5785.47C1390.32,5933.89 1510.48,6054.48 1658.74,6055.15C1676.39,6054.57 1694.17,6052.85 1712.09,6050.12ZM2689.76,5697.97C2946.55,5697.97 3155.02,5489.49 3155.02,5232.71C3155.02,4975.92 2946.55,4767.45 2689.76,4767.45C2432.98,4767.45 2224.5,4975.92 2224.5,5232.71C2224.5,5489.49 2432.98,5697.97 2689.76,5697.97Z"/>
    </g>
</svg>
